<?xml version="1.0" encoding="UTF-8" standalone="no"?>
<svg
   xmlns:dc="http://purl.org/dc/elements/1.1/"
   xmlns:cc="http://creativecommons.org/ns#"
   xmlns:rdf="http://www.w3.org/1999/02/22-rdf-syntax-ns#"
   xmlns:svg="http://www.w3.org/2000/svg"
   xmlns="http://www.w3.org/2000/svg"
   xmlns:sodipodi="http://sodipodi.sourceforge.net/DTD/sodipodi-0.dtd"
   xmlns:inkscape="http://www.inkscape.org/namespaces/inkscape"
   width="32"
   height="32"
   viewBox="0 0 8.4666665 8.4666669"
   version="1.1"
   id="svg8"
   inkscape:version="1.0.2 (e86c870879, 2021-01-15, custom)"
   sodipodi:docname="airport.svg">
  <defs
     id="defs2" />
  <sodipodi:namedview
     id="base"
     pagecolor="#ffffff"
     bordercolor="#666666"
     borderopacity="1.0"
     inkscape:pageopacity="0.0"
     inkscape:pageshadow="2"
     inkscape:zoom="22.4"
     inkscape:cx="14.064345"
     inkscape:cy="12.701762"
     inkscape:document-units="mm"
     inkscape:current-layer="layer1"
     inkscape:document-rotation="0"
     showgrid="true"
     units="px"
     inkscape:window-width="2560"
     inkscape:window-height="1404"
     inkscape:window-x="3840"
     inkscape:window-y="725"
     inkscape:window-maximized="1">
    <inkscape:grid
       type="xygrid"
       id="grid833"
       empspacing="4" />
    <inkscape:grid
       type="xygrid"
       id="grid835"
       empspacing="1"
       originy="0.13229167"
       originx="0.13229167"
       dotted="true" />
  </sodipodi:namedview>
  <metadata
     id="metadata5">
    <rdf:RDF>
      <cc:Work
         rdf:about="">
        <dc:format>image/svg+xml</dc:format>
        <dc:type
           rdf:resource="http://purl.org/dc/dcmitype/StillImage" />
        <dc:title></dc:title>
      </cc:Work>
    </rdf:RDF>
  </metadata>
  <g
     inkscape:label="Layer 1"
     inkscape:groupmode="layer"
     id="layer1">
    <g
       id="g4022"
       transform="matrix(8.0000003,0,0,8.0000025,-46.566667,-107.95004)"
       style="stroke-width:0.125">
      <rect
         style="fill:#0000c8;fill-opacity:1;stroke:none;stroke-width:0.16537497;stroke-linecap:round;stroke-linejoin:round;stroke-miterlimit:4;stroke-dasharray:none;stroke-dashoffset:0;stroke-opacity:1"
         id="rect5926"
         width="1.0583334"
         height="1.0583332"
         x="5.8208332"
         y="13.493751"
         ry="0.13229164" />
      <a
         id="a4005"
         style="stroke-width:0.125">
        <path
           id="path3986"
           style="color:#000000;font-style:normal;font-variant:normal;font-weight:normal;font-stretch:normal;font-size:medium;line-height:normal;font-family:sans-serif;font-variant-ligatures:normal;font-variant-position:normal;font-variant-caps:normal;font-variant-numeric:normal;font-variant-alternates:normal;font-variant-east-asian:normal;font-feature-settings:normal;font-variation-settings:normal;text-indent:0;text-align:start;text-decoration:none;text-decoration-line:none;text-decoration-style:solid;text-decoration-color:#000000;letter-spacing:normal;word-spacing:normal;text-transform:none;writing-mode:lr-tb;direction:ltr;text-orientation:mixed;dominant-baseline:auto;baseline-shift:baseline;text-anchor:start;white-space:normal;shape-padding:0;shape-margin:0;inline-size:0;clip-rule:nonzero;display:inline;overflow:visible;visibility:visible;opacity:1;isolation:auto;mix-blend-mode:normal;color-interpolation:sRGB;color-interpolation-filters:linearRGB;solid-color:#000000;solid-opacity:1;vector-effect:none;fill:#ffffff;fill-opacity:1;fill-rule:nonzero;stroke:none;stroke-width:0.125;stroke-linecap:round;stroke-linejoin:miter;stroke-miterlimit:4;stroke-dasharray:none;stroke-dashoffset:0;stroke-opacity:1;color-rendering:auto;image-rendering:auto;shape-rendering:auto;text-rendering:auto;enable-background:accumulate;stop-color:#000000;stop-opacity:1"
           d="m 6.5971274,13.714466 a 0.05879622,0.05879622 0 0 0 -0.0055,4.58e-4 0.05879622,0.05879622 0 0 0 -0.03376,0.01723 l -0.14079,0.14056 -0.215204,-0.07189 a 0.05879622,0.05879622 0 0 0 -0.02595,-0.0028 0.05879622,0.05879622 0 0 0 -0.04777,0.03996 0.05879622,0.05879622 0 0 0 0.03721,0.07464 l 0.158704,0.05306 -0.197978,0.197519 -0.09003,-0.03009 a 0.05879622,0.05879622 0 0 0 -0.02687,-0.0025 0.05879622,0.05879622 0 0 0 -0.04777,0.03996 0.05879622,0.05879622 0 0 0 0.03744,0.07464 l 0.04387,0.01447 a 0.05879622,0.05879622 0 0 0 0.01608,0.05397 0.05879622,0.05879622 0 0 0 0.05443,0.01585 l 0.01493,0.04502 a 0.05879622,0.05879622 0 0 0 0.07372,0.03652 0.05879622,0.05879622 0 0 0 0.03744,-0.07395 l -0.02986,-0.09072 0.197978,-0.197979 0.05329,0.159393 a 0.05879622,0.05879622 0 0 0 0.07464,0.03744 0.05879622,0.05879622 0 0 0 0.03629,-0.07464 l -0.07143,-0.215204 0.141019,-0.140789 a 0.05879622,0.05879622 0 0 0 0,-0.08245 0.05879622,0.05879622 0 0 0 -0.0441,-0.01769 z" />
      </a>
    </g>
  </g>
</svg>
