<?xml version="1.0" encoding="UTF-8" standalone="no"?>
<svg
   width="32"
   height="32"
   viewBox="0 0 8.4666665 8.4666669"
   version="1.1"
   id="svg8"
   inkscape:version="1.2 (dc2aedaf03, 2022-05-15)"
   sodipodi:docname="frivoloco.svg"
   xmlns:inkscape="http://www.inkscape.org/namespaces/inkscape"
   xmlns:sodipodi="http://sodipodi.sourceforge.net/DTD/sodipodi-0.dtd"
   xmlns="http://www.w3.org/2000/svg"
   xmlns:svg="http://www.w3.org/2000/svg"
   xmlns:rdf="http://www.w3.org/1999/02/22-rdf-syntax-ns#"
   xmlns:cc="http://creativecommons.org/ns#"
   xmlns:dc="http://purl.org/dc/elements/1.1/">
  <defs
     id="defs2" />
  <sodipodi:namedview
     id="base"
     pagecolor="#ffffff"
     bordercolor="#666666"
     borderopacity="1.0"
     inkscape:pageopacity="0.0"
     inkscape:pageshadow="2"
     inkscape:zoom="22.4"
     inkscape:cx="24.441964"
     inkscape:cy="17.723214"
     inkscape:document-units="mm"
     inkscape:current-layer="layer1"
     inkscape:document-rotation="0"
     showgrid="true"
     units="px"
     inkscape:window-width="3840"
     inkscape:window-height="2101"
     inkscape:window-x="0"
     inkscape:window-y="23"
     inkscape:window-maximized="1"
     inkscape:showpageshadow="0"
     inkscape:pagecheckerboard="0"
     inkscape:deskcolor="#d1d1d1">
    <inkscape:grid
       type="xygrid"
       id="grid833"
       empspacing="4" />
    <inkscape:grid
       type="xygrid"
       id="grid835"
       empspacing="1"
       originy="0.13229167"
       originx="0.13229167"
       dotted="true" />
  </sodipodi:namedview>
  <metadata
     id="metadata5">
    <rdf:RDF>
      <cc:Work
         rdf:about="">
        <dc:format>image/svg+xml</dc:format>
        <dc:type
           rdf:resource="http://purl.org/dc/dcmitype/StillImage" />
      </cc:Work>
    </rdf:RDF>
  </metadata>
  <g
     inkscape:label="Layer 1"
     inkscape:groupmode="layer"
     id="layer1">
    <g
       id="g4130"
       transform="matrix(3.5555541,0,0,3.5555556,-94.074031,-32.925928)"
       style="stroke-width:0.28125">
      <rect
         style="fill:#ffffff;fill-opacity:1;stroke:none;stroke-width:0.0744141;stroke-linecap:round;stroke-linejoin:round;stroke-miterlimit:4;stroke-dasharray:none;stroke-opacity:1"
         id="rect8587"
         width="2.3812509"
         height="2.3812499"
         x="26.458332"
         y="9.260417"
         ry="0.29765639" />
      <g
         aria-label="F"
         id="text2731"
         style="font-size:1.6127px;line-height:1.25;font-family:Parisienne;-inkscape-font-specification:Parisienne;stroke-width:0.0745313">
        <path
           d="m 28.098591,9.8619035 q -7.87e-4,0 -0.02914,0.028348 -0.02835,0.027561 -0.0756,0.085045 -0.04725,0.056696 -0.109455,0.1441035 -0.06142,0.08662 -0.129142,0.204737 l -0.03071,0.05355 q 0.02599,-0.0063 0.05276,-0.01181 0.02677,-0.0055 0.05433,-0.01024 l 0.03544,-0.0071 q 0.0252,-0.04567 0.04567,-0.07481 0.02126,-0.02914 0.03859,-0.04567 0.01811,-0.01732 0.03307,-0.02362 0.01496,-0.0063 0.02677,-0.0063 0.01496,0 0.02914,0.01024 0.01417,0.01024 0.01417,0.03701 0,0.02126 -0.01024,0.04095 -0.01024,0.01969 -0.02914,0.03701 -0.0189,0.01732 -0.04488,0.03071 -0.02599,0.01339 -0.05748,0.02126 -0.01496,0.03071 -0.03071,0.06457 -0.01575,0.03307 -0.03307,0.06693 -0.01732,0.03386 -0.03543,0.06693 -0.01811,0.03229 -0.0378,0.06142 l -0.05591,-0.05276 q 0.0071,-0.0087 0.02126,-0.02756 0.01496,-0.0189 0.0315,-0.04252 0.01732,-0.02362 0.03386,-0.04961 0.01654,-0.02677 0.02835,-0.0504 l 0.01102,-0.02362 q -0.03622,0.0079 -0.07323,0.01654 -0.03622,0.0079 -0.07481,0.01811 -0.06063,0.103944 -0.118905,0.188989 -0.05748,0.08426 -0.122843,0.144891 -0.06536,0.05985 -0.143316,0.09213 -0.07796,0.03307 -0.179539,0.03307 -0.06615,0 -0.133867,-0.0189 -0.06693,-0.01811 -0.121267,-0.05355 -0.05355,-0.03544 -0.08819,-0.08662 -0.03386,-0.05118 -0.03386,-0.116543 0,-0.05118 0.02047,-0.09056 0.01969,-0.04016 0.05433,-0.06693 0.03465,-0.02756 0.08032,-0.04095 0.04646,-0.01417 0.09764,-0.01417 0.04252,0 0.08504,0.01024 0.04331,0.01024 0.08347,0.02914 0.04016,0.0189 0.0756,0.04646 0.03622,0.02677 0.06457,0.06063 l -0.02992,0.02284 q -0.02362,-0.02362 -0.05276,-0.04173 -0.02913,-0.0189 -0.06221,-0.0315 -0.03307,-0.01339 -0.06772,-0.01969 -0.03465,-0.0071 -0.06851,-0.0071 -0.03701,0 -0.07245,0.0094 -0.03543,0.0094 -0.063,0.03071 -0.02756,0.02047 -0.04488,0.05355 -0.01732,0.03228 -0.01732,0.07953 0,0.04252 0.02126,0.07953 0.02126,0.03701 0.05748,0.06457 0.03701,0.02677 0.08583,0.04252 0.04961,0.01575 0.105518,0.01575 0.07953,0 0.143316,-0.02992 0.06378,-0.02914 0.117331,-0.08032 0.05433,-0.05118 0.101581,-0.119692 0.04803,-0.0693 0.09528,-0.147254 -0.02205,0.0071 -0.04488,0.01496 -0.02284,0.0079 -0.04567,0.01654 l -0.01496,-0.03859 q 0.03622,-0.01181 0.0693,-0.02205 0.03307,-0.01024 0.06614,-0.02047 0.04489,-0.07481 0.09292,-0.152766 0.04882,-0.07874 0.106306,-0.153553 0.05748,-0.0756 0.125992,-0.1441032 0.0693,-0.068508 0.15434,-0.1244172 z m -0.531529,0.4283735 q -0.07245,0.03307 -0.144104,0.04803 -0.07166,0.01496 -0.134654,0.01496 -0.07323,0 -0.133867,-0.01969 -0.06063,-0.01969 -0.104731,-0.05512 -0.0441,-0.03544 -0.06851,-0.08505 -0.02441,-0.04961 -0.02441,-0.109455 0,-0.07481 0.0252,-0.1330795 0.02599,-0.058271 0.07008,-0.1023686 0.0441,-0.044885 0.103943,-0.075595 0.05985,-0.030711 0.128355,-0.050397 0.06851,-0.019686 0.142528,-0.028348 0.07402,-0.00866 0.146466,-0.00866 0.08347,0 0.162215,0.010237 0.07875,0.010237 0.152766,0.022836 0.07481,0.011812 0.144891,0.022049 0.07008,0.010237 0.137016,0.010237 0.07638,0 0.140954,-0.011812 0.06457,-0.011812 0.111031,-0.025986 0.04646,-0.014962 0.07245,-0.026773 0.02677,-0.012599 0.02756,-0.012599 l 0.01969,0.036223 q -0.0024,0.00157 -0.03071,0.014962 -0.02835,0.012599 -0.07717,0.028348 -0.04803,0.014962 -0.114968,0.027561 -0.06693,0.011812 -0.147254,0.011812 -0.07481,0 -0.144103,-0.00945 -0.0693,-0.010237 -0.140167,-0.022049 -0.07008,-0.011812 -0.145678,-0.021261 -0.07559,-0.010237 -0.163002,-0.010237 -0.129142,0 -0.228361,0.025199 -0.09843,0.024411 -0.165365,0.070871 -0.06615,0.045672 -0.100006,0.1118181 -0.03386,0.065358 -0.03386,0.1464661 0,0.05591 0.02126,0.09764 0.02205,0.04174 0.05827,0.0693 0.03701,0.02756 0.08426,0.04173 0.04804,0.01339 0.100006,0.01339 0.04567,0 0.0882,-0.0079 0.04252,-0.0079 0.07481,-0.01732 0.03229,-0.01024 0.05197,-0.01811 0.01969,-0.0087 0.02047,-0.0087 z m 0.436248,-0.05118 q -0.01339,0 -0.03071,0.0252 -0.01654,0.02441 -0.03701,0.06457 0.02441,-0.0094 0.03937,-0.01969 0.01496,-0.01024 0.02362,-0.02047 0.0087,-0.01024 0.01181,-0.02047 0.0031,-0.01024 0.0031,-0.01969 0,-0.0055 -0.0031,-0.0071 -0.0032,-0.0024 -0.0071,-0.0024 z"
           id="path6678" />
      </g>
      <g
         aria-label="Co."
         id="text2731-3"
         style="font-size:0.855293px;line-height:1.25;font-family:Parisienne;-inkscape-font-specification:Parisienne;fill:#ff0000;stroke-width:0.0745313">
        <path
           d="m 27.804171,10.843043 q 4.18e-4,8.36e-4 0.0063,0.0058 0.0058,0.0046 0.01629,0.01044 0.01086,0.0058 0.02631,0.01044 0.01545,0.0046 0.03508,0.0046 0.03299,0 0.06223,-0.01253 0.02923,-0.01253 0.05387,-0.03299 0.02506,-0.02046 0.04469,-0.04677 0.02005,-0.02631 0.03383,-0.05387 0.01378,-0.02756 0.0213,-0.05429 0.0075,-0.02673 0.0075,-0.04803 0,-0.02548 -0.0075,-0.04427 -0.0075,-0.01879 -0.02046,-0.0309 -0.01253,-0.01211 -0.03007,-0.01796 -0.01712,-0.0058 -0.03717,-0.0058 -0.03967,0 -0.07893,0.0142 -0.03884,0.01378 -0.07559,0.038 -0.03675,0.02422 -0.07058,0.05721 -0.03383,0.03257 -0.06306,0.07016 -0.02923,0.03759 -0.05304,0.07851 -0.0238,0.04051 -0.04093,0.0806 -0.01671,0.04009 -0.02589,0.0781 -0.0092,0.03759 -0.0092,0.06933 0,0.03675 0.01044,0.06933 0.01086,0.03257 0.03216,0.0568 0.0213,0.02422 0.05304,0.038 0.03216,0.0142 0.07475,0.0142 0.038,0 0.07893,-0.01169 0.04093,-0.01169 0.08144,-0.03759 0.04093,-0.02589 0.0806,-0.06682 0.03967,-0.04134 0.07601,-0.10023 l 0.01504,0.01169 q -0.03926,0.0639 -0.08185,0.107329 -0.0426,0.04343 -0.08519,0.06974 -0.0426,0.02673 -0.08394,0.038 -0.04134,0.01169 -0.07851,0.01169 -0.05346,0 -0.09438,-0.01921 -0.04093,-0.01879 -0.06849,-0.0497 -0.02756,-0.0309 -0.04176,-0.07016 -0.01378,-0.03967 -0.01378,-0.0806 0,-0.03508 0.0096,-0.07475 0.01002,-0.03967 0.02798,-0.0806 0.01796,-0.04093 0.04302,-0.08185 0.02548,-0.04093 0.05638,-0.0781 0.03132,-0.03759 0.06765,-0.06974 0.03633,-0.03216 0.07601,-0.05554 0.04009,-0.0238 0.08227,-0.03717 0.0426,-0.01378 0.08645,-0.01378 0.02756,0 0.05262,0.0079 0.02548,0.0075 0.04469,0.02422 0.01921,0.0167 0.03049,0.04301 0.01128,0.02589 0.01128,0.06264 0,0.02464 -0.0075,0.05346 -0.0075,0.02882 -0.02213,0.05805 -0.0142,0.02882 -0.03508,0.05596 -0.02046,0.02715 -0.04677,0.04803 -0.02589,0.02046 -0.05763,0.03299 -0.03132,0.01253 -0.06682,0.01253 -0.038,0 -0.0664,-0.01253 -0.02798,-0.01295 -0.04803,-0.03174 l 0.01253,-0.01378 z"
           id="path6671" />
        <path
           d="m 28.322024,11.017192 q 0.0017,4.18e-4 0.0033,4.18e-4 0.0017,0 0.0038,0 0.01169,0 0.0213,-0.0021 0.0096,-0.0025 0.01754,-0.0075 0.0084,-0.005 0.01587,-0.01295 0.0075,-0.0084 0.01462,-0.02005 l 0.01504,0.01169 q -0.02005,0.0284 -0.04134,0.03967 -0.0213,0.01128 -0.0451,0.01128 -0.0088,0 -0.01545,-0.0017 -0.01796,0.03007 -0.03842,0.05137 -0.02046,0.02088 -0.04176,0.03425 -0.0213,0.01336 -0.04218,0.01921 -0.02088,0.0063 -0.03884,0.0063 -0.01838,0 -0.03424,-0.0067 -0.01545,-0.0063 -0.02673,-0.01837 -0.01128,-0.01211 -0.01754,-0.02882 -0.0063,-0.0167 -0.0063,-0.03759 0,-0.02088 0.0067,-0.0426 0.0067,-0.02172 0.01796,-0.04302 0.01169,-0.0213 0.02715,-0.04093 0.01545,-0.02005 0.03341,-0.03717 0.01796,-0.01712 0.03717,-0.0309 0.01921,-0.01378 0.03842,-0.02255 l 0.01336,0.01754 q -0.02213,0.01587 -0.0451,0.04009 -0.02255,0.02422 -0.04134,0.05304 -0.01837,0.02882 -0.03049,0.06014 -0.01169,0.03091 -0.01169,0.06014 0,0.02631 0.01169,0.04093 0.01169,0.0142 0.0355,0.0142 0.01838,0 0.03633,-0.0075 0.01796,-0.0075 0.03508,-0.02046 0.01712,-0.01295 0.03299,-0.03049 0.01587,-0.01796 0.03007,-0.038 -0.01211,-0.0071 -0.0213,-0.01879 -0.0092,-0.01211 -0.01545,-0.02714 -0.0063,-0.01545 -0.0096,-0.03299 -0.0029,-0.01754 -0.0029,-0.03592 0,-0.01838 0.0046,-0.03466 0.0046,-0.01629 0.01253,-0.0284 0.0084,-0.01253 0.01921,-0.01963 0.01086,-0.0071 0.0238,-0.0071 0.01169,0 0.02088,0.0063 0.0092,0.0058 0.01545,0.0167 0.0063,0.01044 0.0096,0.02506 0.0033,0.01462 0.0033,0.03132 0,0.01253 -0.0021,0.02756 -0.0021,0.01503 -0.0063,0.03049 -0.0038,0.01503 -0.0096,0.03007 -0.0054,0.01462 -0.01295,0.02631 z m -0.0568,-0.103988 q 0,0.01211 0.0021,0.02631 0.0021,0.0142 0.0067,0.02756 0.0046,0.01336 0.01169,0.02506 0.0071,0.01128 0.01754,0.01796 0.0075,-0.01462 0.01253,-0.02965 0.0054,-0.01545 0.0088,-0.02965 0.0038,-0.0142 0.005,-0.02631 0.0017,-0.01253 0.0017,-0.02172 0,-0.01253 -0.0021,-0.02297 -0.0021,-0.01044 -0.0058,-0.01796 -0.0033,-0.0079 -0.0088,-0.01211 -0.005,-0.0046 -0.01128,-0.0046 -0.0084,0 -0.01545,0.0058 -0.0071,0.0054 -0.01211,0.01504 -0.005,0.0092 -0.0079,0.02172 -0.0025,0.01211 -0.0025,0.02548 z"
           id="path6673" />
        <path
           d="m 28.467775,11.104476 q 0,0.01253 -0.0092,0.02172 -0.0088,0.0088 -0.02172,0.0088 -0.01211,0 -0.0213,-0.0088 -0.0088,-0.0092 -0.0088,-0.02172 0,-0.01211 0.0088,-0.02088 0.0092,-0.0092 0.0213,-0.0092 0.01295,0 0.02172,0.0092 0.0092,0.0088 0.0092,0.02088 z"
           id="path6675" />
      </g>
    </g>
  </g>
</svg>
