<?xml version="1.0" encoding="UTF-8" standalone="no"?>
<svg
   xmlns:dc="http://purl.org/dc/elements/1.1/"
   xmlns:cc="http://creativecommons.org/ns#"
   xmlns:rdf="http://www.w3.org/1999/02/22-rdf-syntax-ns#"
   xmlns:svg="http://www.w3.org/2000/svg"
   xmlns="http://www.w3.org/2000/svg"
   xmlns:sodipodi="http://sodipodi.sourceforge.net/DTD/sodipodi-0.dtd"
   xmlns:inkscape="http://www.inkscape.org/namespaces/inkscape"
   width="32"
   height="32"
   viewBox="0 0 8.4666665 8.4666669"
   version="1.1"
   id="svg8"
   inkscape:version="1.0.2 (e86c870879, 2021-01-15, custom)"
   sodipodi:docname="immigration-check.svg">
  <defs
     id="defs2" />
  <sodipodi:namedview
     id="base"
     pagecolor="#ffffff"
     bordercolor="#666666"
     borderopacity="1.0"
     inkscape:pageopacity="0.0"
     inkscape:pageshadow="2"
     inkscape:zoom="22.4"
     inkscape:cx="14.064345"
     inkscape:cy="12.701762"
     inkscape:document-units="mm"
     inkscape:current-layer="layer1"
     inkscape:document-rotation="0"
     showgrid="true"
     units="px"
     inkscape:window-width="2560"
     inkscape:window-height="1404"
     inkscape:window-x="3840"
     inkscape:window-y="725"
     inkscape:window-maximized="1">
    <inkscape:grid
       type="xygrid"
       id="grid833"
       empspacing="4" />
    <inkscape:grid
       type="xygrid"
       id="grid835"
       empspacing="1"
       originy="0.13229167"
       originx="0.13229167"
       dotted="true" />
  </sodipodi:namedview>
  <metadata
     id="metadata5">
    <rdf:RDF>
      <cc:Work
         rdf:about="">
        <dc:format>image/svg+xml</dc:format>
        <dc:type
           rdf:resource="http://purl.org/dc/dcmitype/StillImage" />
        <dc:title></dc:title>
      </cc:Work>
    </rdf:RDF>
  </metadata>
  <g
     inkscape:label="Layer 1"
     inkscape:groupmode="layer"
     id="layer1">
    <g
       id="g4130"
       transform="matrix(3.5555541,0,0,3.5555556,-94.074031,-32.925928)"
       style="stroke-width:0.28125">
      <rect
         style="fill:#0000c8;fill-opacity:1;stroke:none;stroke-width:0.0744141;stroke-linecap:round;stroke-linejoin:round;stroke-miterlimit:4;stroke-dasharray:none;stroke-opacity:1"
         id="rect8587"
         width="2.3812509"
         height="2.3812499"
         x="26.458332"
         y="9.260417"
         ry="0.29765639" />
      <path
         id="rect4074"
         style="fill:#ffffff;fill-opacity:1;stroke:none;stroke-width:0.0744141;stroke-linecap:round;stroke-linejoin:round;stroke-miterlimit:4;stroke-dasharray:none;stroke-opacity:1"
         d="m 26.722916,9.5249996 h 0.79375 v 1.0583334 h -0.79375 z" />
      <g
         id="path4080"
         style="opacity:1;stroke-width:0.28125">
        <path
           style="color:#000000;font-style:normal;font-variant:normal;font-weight:normal;font-stretch:normal;font-size:medium;line-height:normal;font-family:sans-serif;font-variant-ligatures:normal;font-variant-position:normal;font-variant-caps:normal;font-variant-numeric:normal;font-variant-alternates:normal;font-variant-east-asian:normal;font-feature-settings:normal;font-variation-settings:normal;text-indent:0;text-align:start;text-decoration:none;text-decoration-line:none;text-decoration-style:solid;text-decoration-color:#000000;letter-spacing:normal;word-spacing:normal;text-transform:none;writing-mode:lr-tb;direction:ltr;text-orientation:mixed;dominant-baseline:auto;baseline-shift:baseline;text-anchor:start;white-space:normal;shape-padding:0;shape-margin:0;inline-size:0;clip-rule:nonzero;display:inline;overflow:visible;visibility:visible;isolation:auto;mix-blend-mode:normal;color-interpolation:sRGB;color-interpolation-filters:linearRGB;solid-color:#000000;solid-opacity:1;vector-effect:none;fill:#ffffff;fill-opacity:1;fill-rule:nonzero;stroke:none;stroke-width:0.0223243;stroke-linecap:round;stroke-linejoin:round;stroke-miterlimit:4;stroke-dasharray:none;stroke-dashoffset:0;stroke-opacity:1;color-rendering:auto;image-rendering:auto;shape-rendering:auto;text-rendering:auto;enable-background:accumulate;stop-color:#000000;stop-opacity:1"
           d="m 26.722916,9.5249997 0.661459,0.3968758 v 1.0583335 l -0.661459,-0.396876 z"
           id="path4088" />
        <path
           style="color:#000000;font-style:normal;font-variant:normal;font-weight:normal;font-stretch:normal;font-size:medium;line-height:normal;font-family:sans-serif;font-variant-ligatures:normal;font-variant-position:normal;font-variant-caps:normal;font-variant-numeric:normal;font-variant-alternates:normal;font-variant-east-asian:normal;font-feature-settings:normal;font-variation-settings:normal;text-indent:0;text-align:start;text-decoration:none;text-decoration-line:none;text-decoration-style:solid;text-decoration-color:#000000;letter-spacing:normal;word-spacing:normal;text-transform:none;writing-mode:lr-tb;direction:ltr;text-orientation:mixed;dominant-baseline:auto;baseline-shift:baseline;text-anchor:start;white-space:normal;shape-padding:0;shape-margin:0;inline-size:0;clip-rule:nonzero;display:inline;overflow:visible;visibility:visible;isolation:auto;mix-blend-mode:normal;color-interpolation:sRGB;color-interpolation-filters:linearRGB;solid-color:#000000;solid-opacity:1;vector-effect:none;fill:#0000c8;fill-opacity:1;fill-rule:nonzero;stroke:none;stroke-width:0.28125;stroke-linecap:round;stroke-linejoin:round;stroke-miterlimit:4;stroke-dasharray:none;stroke-dashoffset:0;stroke-opacity:1;color-rendering:auto;image-rendering:auto;shape-rendering:auto;text-rendering:auto;enable-background:accumulate;stop-color:#000000;stop-opacity:1"
           d="m 26.710938,9.4863281 a 0.03969147,0.03969147 0 0 0 -0.02734,0.039063 v 1.0585939 a 0.03969147,0.03969147 0 0 0 0.01953,0.0332 l 0.660156,0.396484 a 0.03969147,0.03969147 0 0 0 0.06055,-0.0332 V 9.921875 A 0.03969147,0.03969147 0 0 0 27.404304,9.888672 L 26.744141,9.4902344 a 0.03969147,0.03969147 0 0 0 -0.0332,-0.00391 z m 0.05078,0.1074219 0.582031,0.3515625 v 0.9628905 l -0.582031,-0.347656 z"
           id="path4090" />
      </g>
      <path
         id="rect4092"
         style="fill:#ffffff;fill-opacity:1;stroke:none;stroke-width:0.084375;stroke-linecap:round;stroke-linejoin:round;stroke-miterlimit:4;stroke-dasharray:none;stroke-opacity:1"
         d="m 101.75,41.5 c -0.4155,0 -0.75,0.3345 -0.75,0.75 0,0.4155 0.3345,0.75 0.75,0.75 H 109 v -1.5 z"
         transform="scale(0.26458333)" />
      <path
         id="path4097"
         style="color:#000000;font-style:normal;font-variant:normal;font-weight:normal;font-stretch:normal;font-size:medium;line-height:normal;font-family:sans-serif;font-variant-ligatures:normal;font-variant-position:normal;font-variant-caps:normal;font-variant-numeric:normal;font-variant-alternates:normal;font-variant-east-asian:normal;font-feature-settings:normal;font-variation-settings:normal;text-indent:0;text-align:start;text-decoration:none;text-decoration-line:none;text-decoration-style:solid;text-decoration-color:#000000;letter-spacing:normal;word-spacing:normal;text-transform:none;writing-mode:lr-tb;direction:ltr;text-orientation:mixed;dominant-baseline:auto;baseline-shift:baseline;text-anchor:start;white-space:normal;shape-padding:0;shape-margin:0;inline-size:0;clip-rule:nonzero;display:inline;overflow:visible;visibility:visible;opacity:1;isolation:auto;mix-blend-mode:normal;color-interpolation:sRGB;color-interpolation-filters:linearRGB;solid-color:#000000;solid-opacity:1;vector-effect:none;fill:#ffffff;fill-opacity:1;fill-rule:nonzero;stroke:none;stroke-width:0.28125;stroke-linecap:round;stroke-linejoin:round;stroke-miterlimit:4;stroke-dasharray:none;stroke-dashoffset:0;stroke-opacity:1;color-rendering:auto;image-rendering:auto;shape-rendering:auto;text-rendering:auto;enable-background:accumulate;stop-color:#000000;stop-opacity:1"
         d="m 28.13196,9.5105306 c -0.264007,0 -0.478869,0.214861 -0.478869,0.4788684 0,0.264008 0.214862,0.47943 0.478869,0.47943 0.264008,0 0.478869,-0.215422 0.478869,-0.47943 0,-0.2640074 -0.214861,-0.4788684 -0.478869,-0.4788684 z m 0,0.095437 c 0.03364,0 0.07501,0.031184 0.109659,0.1004895 0.01296,0.025921 0.02358,0.057392 0.03275,0.091133 h -0.284814 c 0.0092,-0.033743 0.01979,-0.065211 0.03275,-0.091133 0.03465,-0.069305 0.07602,-0.1004895 0.109658,-0.1004895 z m -0.192932,0.05352 c -6.88e-4,0.00133 -0.0016,0.0024 -0.0022,0.00374 -0.01972,0.039444 -0.03504,0.085172 -0.0466,0.1343602 h -0.08851 c 0.03325,-0.05728 0.08019,-0.1046812 0.137355,-0.1381028 z m 0.385865,0 c 0.05716,0.033422 0.10411,0.080823 0.137354,0.1381028 h -0.08851 c -0.01155,-0.049188 -0.02687,-0.094916 -0.0466,-0.1343602 -6.52e-4,-0.00134 -0.0016,-0.00242 -0.0022,-0.00374 z M 27.762002,9.893963 h 0.111343 c -0.0033,0.030878 -0.0052,0.062688 -0.0052,0.095437 0,0.033018 0.0021,0.064999 0.0054,0.096185 H 27.76219 c -0.008,-0.03093 -0.01366,-0.0627 -0.01366,-0.096185 0,-0.033149 0.0056,-0.064789 0.01347,-0.095437 z m 0.208652,0 h 0.322613 c 0.0037,0.030628 0.0064,0.062289 0.0064,0.095437 0,0.033417 -0.0028,0.065246 -0.0066,0.096185 h -0.32224 c -0.0038,-0.03094 -0.0066,-0.06277 -0.0066,-0.096185 0,-0.033149 0.0026,-0.064808 0.0064,-0.095437 z m 0.419922,0 h 0.111343 c 0.0079,0.030646 0.01347,0.062287 0.01347,0.095437 0,0.033485 -0.0057,0.06526 -0.01366,0.096185 h -0.111343 c 0.0034,-0.03119 0.0054,-0.06317 0.0054,-0.096185 0,-0.03275 -0.0019,-0.064559 -0.0052,-0.095437 z m -0.588902,0.287058 H 27.89 c 0.01157,0.04959 0.02698,0.0955 0.04678,0.135109 4.7e-4,9.42e-4 0.0012,0.0017 0.0017,0.0026 -0.0569,-0.03341 -0.103666,-0.08065 -0.136794,-0.137728 z m 0.187879,0 h 0.284814 c -0.0092,0.03408 -0.01972,0.06583 -0.03275,0.09188 -0.03465,0.0693 -0.07602,0.09974 -0.109659,0.09974 -0.03364,0 -0.07501,-0.03044 -0.109659,-0.09974 -0.01303,-0.02605 -0.02356,-0.05781 -0.03275,-0.09188 z m 0.384368,0 h 0.08833 c -0.03313,0.05708 -0.0799,0.104324 -0.136793,0.137729 4.71e-4,-9.41e-4 0.0012,-0.0017 0.0017,-0.0026 0.0198,-0.03961 0.03522,-0.08552 0.04678,-0.135109 z" />
    </g>
  </g>
</svg>
