<?xml version="1.0" encoding="UTF-8" standalone="no"?>
<svg
   xmlns:dc="http://purl.org/dc/elements/1.1/"
   xmlns:cc="http://creativecommons.org/ns#"
   xmlns:rdf="http://www.w3.org/1999/02/22-rdf-syntax-ns#"
   xmlns:svg="http://www.w3.org/2000/svg"
   xmlns="http://www.w3.org/2000/svg"
   xmlns:sodipodi="http://sodipodi.sourceforge.net/DTD/sodipodi-0.dtd"
   xmlns:inkscape="http://www.inkscape.org/namespaces/inkscape"
   width="32"
   height="32"
   viewBox="0 0 8.4666665 8.4666669"
   version="1.1"
   id="svg8"
   inkscape:version="1.0.2 (e86c870879, 2021-01-15, custom)"
   sodipodi:docname="parking.svg">
  <defs
     id="defs2" />
  <sodipodi:namedview
     id="base"
     pagecolor="#ffffff"
     bordercolor="#666666"
     borderopacity="1.0"
     inkscape:pageopacity="0.0"
     inkscape:pageshadow="2"
     inkscape:zoom="22.4"
     inkscape:cx="14.064345"
     inkscape:cy="12.701762"
     inkscape:document-units="mm"
     inkscape:current-layer="layer1"
     inkscape:document-rotation="0"
     showgrid="true"
     units="px"
     inkscape:window-width="2560"
     inkscape:window-height="1404"
     inkscape:window-x="3840"
     inkscape:window-y="725"
     inkscape:window-maximized="1">
    <inkscape:grid
       type="xygrid"
       id="grid833"
       empspacing="4" />
    <inkscape:grid
       type="xygrid"
       id="grid835"
       empspacing="1"
       originy="0.13229167"
       originx="0.13229167"
       dotted="true" />
  </sodipodi:namedview>
  <metadata
     id="metadata5">
    <rdf:RDF>
      <cc:Work
         rdf:about="">
        <dc:format>image/svg+xml</dc:format>
        <dc:type
           rdf:resource="http://purl.org/dc/dcmitype/StillImage" />
        <dc:title></dc:title>
      </cc:Work>
    </rdf:RDF>
  </metadata>
  <g
     inkscape:label="Layer 1"
     inkscape:groupmode="layer"
     id="layer1">
    <g
       id="g4022"
       transform="matrix(8.0000003,0,0,8.0000025,-46.566667,-107.95004)"
       style="stroke-width:0.125">
      <rect
         style="fill:#0000c8;fill-opacity:1;stroke:none;stroke-width:0.16537497;stroke-linecap:round;stroke-linejoin:round;stroke-miterlimit:4;stroke-dasharray:none;stroke-dashoffset:0;stroke-opacity:1"
         id="rect5926"
         width="1.0583334"
         height="1.0583332"
         x="5.8208332"
         y="13.493751"
         ry="0.13229164" />
      <g
         aria-label="P"
         id="text7829"
         style="font-size:0.920675px;line-height:1.25;font-family:Contemporary;-inkscape-font-specification:Contemporary;fill:#ffffff;fill-opacity:1;stroke-width:0.00366186"
         transform="matrix(1.1289643,0,0,1.1289643,-0.67090842,-1.8047329)">
        <path
           d="m 6.2363907,13.697376 q 0.09575,0 0.1583561,0.04972 0.063527,0.04972 0.063527,0.145467 0,0.06445 -0.030382,0.10956 -0.029462,0.04511 -0.080099,0.06721 -0.049716,0.0221 -0.1114017,0.0221 H 6.0669865 v 0.225565 q 0,0.01013 -0.00737,0.01749 -0.00737,0.0074 -0.017493,0.0074 h -0.037748 q -0.010127,0 -0.017493,-0.0074 -0.00737,-0.0074 -0.00737,-0.01749 v -0.594756 q 0,-0.01013 0.00737,-0.01749 0.00737,-0.0074 0.017493,-0.0074 z m -0.0046,0.311188 q 0.067209,0 0.1031156,-0.02854 0.035906,-0.02946 0.035906,-0.08746 0,-0.112322 -0.1390219,-0.112322 H 6.0669865 v 0.228327 z"
           style="fill:#ffffff;fill-opacity:1;stroke-width:0.00366186"
           id="path7831" />
      </g>
    </g>
  </g>
</svg>
